<svg width="37" height="44" viewBox="0 0 37 44" fill="none" xmlns="http://www.w3.org/2000/svg">
<g clip-path="url(#clip0_9_46)">
<path d="M36.4565 33.1557C35.9683 31.5749 35.0559 30.1251 33.6701 28.7189C30.0602 25.0677 25.5181 23.0409 20.1624 22.7015C14.9743 22.3717 10.2498 23.7391 6.12696 26.7697C3.87813 28.4231 2.33453 30.2512 1.41725 32.3701C0.174475 35.231 0.859972 37.8688 3.35538 39.7986C4.36636 40.5793 5.56475 41.1951 7.13301 41.7236C11.1375 43.0813 15.2455 43.3626 18.747 43.4595C21.7109 43.3917 25.602 43.1686 29.4339 42.0534C30.9577 41.6121 32.9156 40.9284 34.548 39.5416C36.5897 37.8106 37.2357 35.6625 36.4565 33.1508V33.1557ZM32.0279 36.8554C30.9232 37.7427 29.5719 38.213 28.3982 38.5573C25.5329 39.401 22.0956 39.8277 18.1799 39.8326C14.491 39.7598 11.1967 39.2459 8.38071 38.3003C7.19712 37.9027 6.31436 37.4566 5.59434 36.8893C4.465 36.0019 4.22828 35.1049 4.77569 33.7909C5.30337 32.5204 6.22559 31.3616 7.58672 30.2463C10.812 27.6085 14.5453 26.2751 18.6878 26.2751C19.1366 26.2751 19.6002 26.2896 20.0638 26.3236C24.3296 26.6194 27.984 28.2243 30.9183 31.0949C31.8109 31.9677 32.4323 32.855 32.8219 33.8199C33.3446 35.1098 33.1129 35.9874 32.0279 36.8602V36.8554Z" fill="#3B3C43"/>
<path d="M18.7915 19.637C24.2409 19.637 28.6843 15.273 28.6892 9.91495C28.6892 7.30625 27.6585 4.85757 25.7796 3.01014C23.9056 1.17241 21.4249 0.158997 18.7619 0.158997C13.2976 0.173543 8.85914 4.54724 8.87394 9.91495C8.88873 15.273 13.3321 19.6321 18.7865 19.637H18.7915ZM12.5529 9.88101C12.5628 6.51588 15.3738 3.78111 18.8358 3.78111C20.4781 3.78111 22.0315 4.43086 23.2102 5.5946C24.3889 6.76318 25.0349 8.30027 25.03 9.9295C25.0152 13.2946 22.2189 16.0342 18.7915 16.0342C17.1246 16.0342 15.5612 15.3893 14.3776 14.2256C13.199 13.0619 12.5529 11.5199 12.5579 9.88586L12.5529 9.88101Z" fill="#3B3C43"/>
</g>
<defs>
<clipPath id="clip0_9_46">
<rect width="35.9615" height="43.3005" fill="white" transform="translate(0.810669 0.158997)"/>
</clipPath>
</defs>
</svg>
