<svg width="46" height="55" viewBox="0 0 46 55" fill="none" xmlns="http://www.w3.org/2000/svg">
<g clip-path="url(#clip0_9_46)">
<path d="M45.1357 41.7812C44.5175 39.7797 43.3622 37.9439 41.6075 36.1633C37.0365 31.5401 31.2852 28.9736 24.5037 28.5438C17.9344 28.1263 11.9521 29.8578 6.73162 33.6951C3.8841 35.7888 1.92955 38.1035 0.768065 40.7866C-0.805564 44.4091 0.0624295 47.7491 3.22218 50.1927C4.50231 51.1812 6.01974 51.961 8.00551 52.6302C13.0761 54.3494 18.2778 54.7055 22.7115 54.8283C26.4644 54.7423 31.3914 54.4599 36.2434 53.0477C38.173 52.489 40.6521 51.6233 42.719 49.8673C45.3043 47.6754 46.1223 44.9555 45.1357 41.7751V41.7812ZM39.5281 46.4659C38.1293 47.5895 36.4183 48.185 34.9321 48.6209C31.304 49.6893 26.9515 50.2296 21.9933 50.2357C17.3224 50.1436 13.151 49.4928 9.58539 48.2955C8.08669 47.7921 6.96892 47.2272 6.05721 46.5089C4.62721 45.3853 4.32747 44.2494 5.02061 42.5855C5.68878 40.9769 6.85651 39.5095 8.58001 38.0974C12.664 34.7573 17.3911 33.0689 22.6365 33.0689C23.2048 33.0689 23.7918 33.0873 24.3788 33.1303C29.7803 33.5048 34.4075 35.5371 38.123 39.1718C39.2533 40.277 40.0401 41.4006 40.5334 42.6224C41.1954 44.2556 40.9019 45.3669 39.5281 46.472V46.4659Z" fill="#3B3C43"/>
<path d="M22.7677 24.6635C29.6679 24.6635 35.2943 19.1377 35.3005 12.3532C35.3005 9.05004 33.9954 5.94945 31.6162 3.61019C29.2433 1.28322 26.1023 0 22.7302 0C15.8113 0.0184194 10.1912 5.55651 10.2099 12.3532C10.2286 19.1377 15.855 24.6574 22.7615 24.6635H22.7677ZM14.8683 12.3103C14.8808 8.04926 18.4402 4.58642 22.8239 4.58642C24.9033 4.58642 26.8704 5.40915 28.3628 6.8827C29.8553 8.36239 30.6733 10.3087 30.6671 12.3717C30.6483 16.6327 27.1077 20.1017 22.7677 20.1017C20.657 20.1017 18.6775 19.2851 17.1788 17.8115C15.6864 16.338 14.8683 14.3855 14.8746 12.3164L14.8683 12.3103Z" fill="#3B3C43"/>
</g>
<defs>
<clipPath id="clip0_9_46">
<rect width="45.5354" height="54.8283" fill="white"/>
</clipPath>
</defs>
</svg>
