<svg width="58" height="62" viewBox="0 0 58 62" fill="none" xmlns="http://www.w3.org/2000/svg">
<g clip-path="url(#clip0_9_113)">
<path d="M57.6164 15.7599C57.1636 14.4049 56.2046 13.9035 54.8047 13.9393C52.6304 13.999 50.4501 13.9513 48.2758 13.9572C46.9414 13.9572 46.1789 14.5303 45.8036 15.8136C45.47 16.9477 45.1067 18.0759 44.8207 19.2219C44.7016 19.6935 44.511 19.8308 44.0285 19.8308C32.8293 19.8128 21.6242 19.8188 10.425 19.8188C7.78008 19.8188 5.13516 19.8188 2.49025 19.8188C0.595924 19.8188 -0.386982 21.1499 0.149151 22.9824C2.67492 31.6434 5.20665 40.3104 7.74433 48.9715C8.12558 50.2787 8.88808 50.8457 10.2582 50.8457C19.6047 50.8457 28.9453 50.8457 38.2919 50.8457C39.6858 50.8457 40.4423 50.2727 40.8355 48.9237C43.7306 38.9972 46.6317 29.0767 49.5149 19.1443C49.6638 18.625 49.8723 18.44 50.4263 18.4579C51.8857 18.4997 53.3571 18.428 54.8166 18.4877C56.2165 18.5414 57.1696 18.0221 57.6283 16.6672V15.7659L57.6164 15.7599ZM36.892 46.3272H36.2843C28.29 46.3272 20.3017 46.3212 12.3074 46.3391C11.7951 46.3391 11.6045 46.1839 11.4675 45.7064C9.83524 40.0657 8.18515 34.4309 6.53506 28.7962C6.10616 27.3219 5.68321 25.8535 5.24834 24.3553H43.3077L36.892 46.3272Z" fill="#3B3C43"/>
<path d="M27.3129 58.2772C27.307 59.9724 28.6473 61.3273 30.3272 61.3393C31.9951 61.3452 33.3772 59.9783 33.3891 58.307C33.401 56.6417 32.0249 55.2568 30.3629 55.2509C28.6771 55.2449 27.3249 56.5879 27.3189 58.2772H27.3129Z" fill="#3B3C43"/>
<path d="M18.1927 55.2449C16.5188 55.2568 15.1665 56.6297 15.1725 58.307C15.1784 59.9843 16.5545 61.3393 18.2284 61.3333C19.9024 61.3213 21.2546 59.9485 21.2486 58.2712C21.2367 56.5939 19.8666 55.2389 18.1927 55.2449Z" fill="#3B3C43"/>
</g>
<circle cx="38.101" cy="13.9394" r="13.9394" fill="#E11F27"/>
<path d="M42.0605 12.5201V14.4957C42.0605 15.442 41.9665 16.2499 41.7783 16.9195C41.5957 17.5836 41.3301 18.1231 40.9814 18.5381C40.6328 18.9532 40.215 19.2575 39.728 19.4512C39.2466 19.6449 38.707 19.7418 38.1094 19.7418C37.6334 19.7418 37.1907 19.6809 36.7812 19.5591C36.3773 19.4374 36.012 19.2465 35.6855 18.9864C35.359 18.7263 35.0796 18.3915 34.8471 17.982C34.6203 17.567 34.4432 17.0717 34.3159 16.4962C34.1942 15.9206 34.1333 15.2538 34.1333 14.4957V12.5201C34.1333 11.5683 34.2274 10.7658 34.4155 10.1129C34.6037 9.45433 34.8721 8.92031 35.2207 8.5108C35.5693 8.09576 35.9844 7.79417 36.4658 7.60602C36.9528 7.41787 37.4951 7.32379 38.0928 7.32379C38.5742 7.32379 39.0169 7.38466 39.4209 7.50641C39.8304 7.62262 40.1956 7.808 40.5166 8.06256C40.8431 8.31712 41.1198 8.64915 41.3467 9.05865C41.5791 9.46263 41.7562 9.95237 41.8779 10.5279C41.9997 11.0979 42.0605 11.7619 42.0605 12.5201ZM40.06 14.7779V12.2213C40.06 11.7398 40.0324 11.3165 39.977 10.9512C39.9217 10.5805 39.8387 10.2678 39.728 10.0132C39.6229 9.75315 39.4901 9.54287 39.3296 9.38239C39.1691 9.21637 38.9865 9.09739 38.7817 9.02545C38.577 8.94798 38.3473 8.90924 38.0928 8.90924C37.7829 8.90924 37.5062 8.97011 37.2627 9.09186C37.0192 9.20807 36.8144 9.39622 36.6484 9.65631C36.4824 9.9164 36.3551 10.2595 36.2666 10.6856C36.1836 11.1062 36.1421 11.6181 36.1421 12.2213V14.7779C36.1421 15.2649 36.1697 15.6937 36.2251 16.0645C36.2804 16.4353 36.3634 16.7535 36.4741 17.0191C36.5848 17.2792 36.7176 17.495 36.8725 17.6666C37.033 17.8326 37.2156 17.9543 37.4204 18.0318C37.6307 18.1093 37.8603 18.148 38.1094 18.148C38.4248 18.148 38.7042 18.0871 38.9477 17.9654C39.1912 17.8436 39.396 17.65 39.562 17.3843C39.728 17.1132 39.8525 16.7618 39.9355 16.3301C40.0185 15.8985 40.06 15.3811 40.06 14.7779Z" fill="white"/>
<defs>
<clipPath id="clip0_9_113">
<rect width="57.6162" height="47.3939" fill="white" transform="matrix(-1 0 0 1 57.6162 13.9394)"/>
</clipPath>
</defs>
</svg>
