<svg width="44" height="44" viewBox="0 0 44 44" fill="none" xmlns="http://www.w3.org/2000/svg">
<g clip-path="url(#clip0_9_56)">
<path d="M42.7387 18.144C41.3722 10.0718 35.0505 3.33194 27.0043 1.37505C26.2971 1.2047 25.5898 1.08239 24.9 0.968824C24.59 0.916407 24.2801 0.863991 23.9701 0.807206L19.8313 0.789734L19.6348 0.807206C19.3729 0.855255 19.1153 0.898935 18.8534 0.942616C18.2771 1.03871 17.679 1.14355 17.0808 1.27459C13.0032 2.19625 9.45814 4.19244 6.54178 7.2064C3.07532 10.7969 1.07578 15.1737 0.608643 20.2057C0.604277 20.2363 0.595545 20.2625 0.586814 20.2931C0.573716 20.3411 0.564984 20.3848 0.556253 20.4329L0.534424 20.5464V23.4206L0.634837 24.2243C0.700325 24.7179 0.770178 25.2071 0.848762 25.6964C1.20676 27.8716 1.94458 30.0251 3.03603 32.0912C2.33314 34.8081 1.61714 37.525 0.905518 40.2376L0.678496 41.1025C0.678496 41.1025 0.656666 41.1461 0.647935 41.1636L0.53879 41.3908V42.4085L0.770178 42.7055C1.02339 43.0331 1.59968 43.5398 2.60818 43.269C6.12703 42.3343 9.06085 41.5655 11.8113 40.8622C14.9809 42.5221 18.312 43.3564 21.7479 43.3564C22.3154 43.3564 22.883 43.3345 23.4549 43.2865C28.4843 42.8846 32.8152 40.9845 36.3166 37.6386C41.8699 32.3358 44.031 25.7793 42.7431 18.144H42.7387ZM4.66885 39.6697L4.05763 39.827L4.76053 37.0882C5.16218 35.5245 5.5682 33.9651 5.95676 32.3969C6.07464 31.9296 6.00042 31.3704 5.76466 30.9424C4.02271 27.7493 3.26742 24.3685 3.52064 20.8871C3.93102 15.3004 6.39771 10.7402 10.8421 7.34181C13.5314 5.28446 16.5657 4.08761 19.8619 3.78622C26.07 3.214 31.3439 5.24951 35.5351 9.8316C37.9931 12.5136 39.4905 15.7241 39.9882 19.367C40.7435 24.8708 39.3203 29.7936 35.7665 33.9956C32.872 37.4158 29.1217 39.5038 24.6162 40.2026C20.6302 40.8229 16.7927 40.1677 13.2171 38.2545C12.7543 38.0055 12.3003 37.8832 11.8244 37.8832C11.5625 37.8832 11.2918 37.9225 11.0167 37.9968C8.90368 38.5646 6.7819 39.115 4.66448 39.6654L4.66885 39.6697Z" fill="#3B3C43"/>
<path d="M22.4551 7.22823C19.888 7.05788 17.4388 7.91402 15.5615 9.64376C13.6886 11.3691 12.632 13.7279 12.5884 16.2963C12.5578 18.2051 13.9767 19.7514 15.8234 19.8213C17.7706 19.8956 19.2681 18.5284 19.399 16.5715C19.4165 16.3138 19.4514 15.9381 19.5606 15.6193C19.8967 14.6146 20.8616 13.9812 21.9487 14.0468C22.9659 14.1079 23.8827 14.9116 24.1272 15.9556C24.363 16.969 23.8784 18.0042 22.9222 18.5284C19.8094 20.2319 18.2858 22.9226 18.3862 26.5263C18.4255 27.924 19.2899 29.1427 20.5865 29.6363C20.9795 29.7848 21.3898 29.8591 21.7959 29.8591C22.7083 29.8591 23.6033 29.4878 24.2625 28.7977C24.948 28.0769 25.258 27.1727 25.2099 26.0327C25.1837 25.36 25.4457 24.9188 26.0962 24.5606C29.1042 22.9052 30.8462 20.2101 31.0034 16.9602V16.934C31.0601 11.8103 27.3012 7.5471 22.4464 7.22386L22.4551 7.22823ZM21.9574 27.7668C21.6081 27.8192 21.237 27.71 20.9489 27.4741C20.6695 27.247 20.5036 26.9281 20.4818 26.5962C20.3246 23.7569 21.4291 21.7171 23.8653 20.363C25.533 19.4369 26.3494 17.9562 26.2359 16.0866C26.1006 13.8327 24.053 11.9545 21.7522 11.9545C21.7347 11.9545 21.7129 11.9545 21.6955 11.9545C19.4034 11.985 17.4563 13.8808 17.3558 16.174C17.3296 16.7943 17.1201 17.5718 16.2731 17.729C15.854 17.8076 15.4567 17.7116 15.1511 17.4538C14.8368 17.1918 14.6621 16.803 14.6621 16.3618C14.649 13.5619 16.4652 10.8756 19.0716 9.82722C19.5082 9.6525 19.9666 9.51272 20.4294 9.41226C20.7481 9.34674 21.0799 9.31616 21.3506 9.28995C21.4422 9.28121 21.5252 9.27248 21.595 9.26811C23.6644 9.28121 25.6509 10.1461 27.0436 11.6443C28.397 13.0989 29.0649 14.9597 28.9296 16.886C28.7462 19.4675 27.5107 21.4069 25.258 22.6562C23.791 23.4686 23.0969 24.648 23.1274 26.2642C23.1449 27.1203 22.7302 27.6532 21.953 27.7668H21.9574Z" fill="#3B3C43"/>
<path d="M24.219 31.5626C23.5728 30.9162 22.7128 30.5405 21.796 30.5624C20.8835 30.5624 20.0278 30.9205 19.386 31.5626C18.7443 32.2047 18.3906 33.0653 18.3906 33.9738C18.3906 34.8867 18.753 35.7472 19.4122 36.3981C20.054 37.0358 20.8966 37.3853 21.7872 37.3853H21.8134C23.6864 37.3722 25.2144 35.8346 25.2144 33.9607C25.2144 33.0565 24.8608 32.2047 24.219 31.5626ZM20.4731 33.952C20.4731 33.5894 20.6172 33.2575 20.8704 33.0085C21.1193 32.7639 21.4511 32.6328 21.8091 32.6328H21.8309C22.5556 32.6459 23.1406 33.2487 23.1319 33.9825C23.1319 34.3451 22.9878 34.6814 22.7346 34.926C22.4814 35.175 22.1452 35.3235 21.7698 35.3017C21.0363 35.293 20.4687 34.6989 20.4731 33.952Z" fill="#3B3C43"/>
</g>
<defs>
<clipPath id="clip0_9_56">
<rect width="42.5666" height="42.5666" fill="white" transform="translate(0.534424 0.789734)"/>
</clipPath>
</defs>
</svg>
