<svg width="54" height="54" viewBox="0 0 54 54" fill="none" xmlns="http://www.w3.org/2000/svg">
<g clip-path="url(#clip0_9_134)">
<path d="M53.4402 21.9744C51.7099 11.7532 43.7052 3.21901 33.5169 0.741146C32.6213 0.525439 31.7258 0.370573 30.8523 0.226768C30.4598 0.160397 30.0673 0.0940259 29.6748 0.0221238L24.4342 0L24.1854 0.0221238C23.8538 0.0829641 23.5276 0.138273 23.1959 0.193583C22.4662 0.315263 21.7089 0.448006 20.9515 0.613934C15.7883 1.78096 11.2994 4.3086 7.60667 8.12495C3.21736 12.6714 0.685485 18.2134 0.0939777 24.585C0.0884496 24.6237 0.0773934 24.6569 0.0663372 24.6956C0.0497529 24.7565 0.0386967 24.8118 0.0276405 24.8726L0 25.0164V28.6558L0.127146 29.6735C0.210068 30.2985 0.298517 30.9179 0.398023 31.5374C0.851328 34.2918 1.78558 37.0186 3.1676 39.6347C2.27758 43.0749 1.37097 46.5152 0.469889 49.9499L0.182427 51.045C0.182427 51.045 0.154787 51.1003 0.143731 51.1225L0.0055281 51.4101V52.6988L0.298517 53.0749C0.619147 53.4897 1.34886 54.1313 2.62585 53.7884C7.0815 52.6048 10.7964 51.6313 14.2791 50.7408C18.2925 52.8426 22.5104 53.899 26.861 53.899C27.5797 53.899 28.2984 53.8713 29.0225 53.8105C35.3909 53.3017 40.8748 50.8957 45.3083 46.659C52.3401 39.9444 55.0765 31.6425 53.4457 21.9744H53.4402ZM5.23511 49.2309L4.46118 49.43L5.3512 45.9621C5.85979 43.982 6.3739 42.0075 6.8659 40.0219C7.01516 39.4301 6.92118 38.7221 6.62266 38.1801C4.41695 34.1369 3.46059 29.856 3.78122 25.4478C4.30086 18.3738 7.42424 12.5995 13.0518 8.29641C16.4572 5.69134 20.2992 4.17586 24.4729 3.79422C32.3339 3.06967 39.0118 5.64709 44.3188 11.449C47.4311 14.845 49.3273 18.9103 49.9575 23.5231C50.9138 30.4921 49.1117 36.7254 44.6118 42.0462C40.9466 46.3769 36.198 49.0207 30.493 49.9057C25.4459 50.691 20.5866 49.8614 16.0591 47.4389C15.4732 47.1236 14.8982 46.9687 14.2957 46.9687C13.964 46.9687 13.6212 47.0185 13.273 47.1125C10.5974 47.8316 7.91071 48.5285 5.22958 49.2253L5.23511 49.2309Z" fill="#3B3C43"/>
<path d="M27.7566 8.15263C24.5061 7.93693 21.4048 9.02099 19.0277 11.2112C16.6561 13.396 15.3183 16.3827 15.2631 19.6349C15.2244 22.0519 17.021 24.0098 19.3594 24.0983C21.8249 24.1924 23.7211 22.4612 23.8869 19.9833C23.909 19.657 23.9532 19.1813 24.0914 18.7776C24.5171 17.5054 25.7388 16.7035 27.1153 16.7864C28.4034 16.8639 29.5643 17.8816 29.8738 19.2034C30.1724 20.4866 29.5587 21.7975 28.3481 22.4612C24.4065 24.6182 22.4772 28.0253 22.6044 32.5883C22.6541 34.3582 23.7487 35.9013 25.3905 36.5263C25.8881 36.7144 26.4077 36.8084 26.9218 36.8084C28.0772 36.8084 29.2105 36.3383 30.0452 35.4644C30.9131 34.5518 31.3056 33.4069 31.2448 31.9633C31.2116 31.1116 31.5433 30.5529 32.367 30.0994C36.1759 28.0032 38.3816 24.5906 38.5806 20.4756V20.4424C38.6525 13.9546 33.8928 8.55639 27.7455 8.1471L27.7566 8.15263ZM27.1264 34.1591C26.6841 34.2255 26.2142 34.0872 25.8494 33.7885C25.4956 33.5009 25.2855 33.0972 25.2579 32.6768C25.0589 29.0817 26.4575 26.4988 29.5422 24.7842C31.6539 23.6116 32.6876 21.7366 32.5439 19.3694C32.3725 16.5154 29.7799 14.1371 26.8665 14.1371C26.8444 14.1371 26.8168 14.1371 26.7947 14.1371C23.8924 14.1758 21.4269 16.5763 21.2998 19.48C21.2666 20.2654 21.0012 21.2499 19.9288 21.449C19.3981 21.5486 18.895 21.4269 18.5081 21.1006C18.11 20.7687 17.8889 20.2764 17.8889 19.7178C17.8723 16.1725 20.172 12.771 23.4723 11.4435C24.0251 11.2223 24.6056 11.0453 25.1915 10.9181C25.5951 10.8351 26.0152 10.7964 26.358 10.7632C26.4741 10.7522 26.5791 10.7411 26.6675 10.7356C29.2879 10.7522 31.8031 11.8473 33.5666 13.7444C35.2803 15.5862 36.1261 17.9424 35.9548 20.3815C35.7226 23.6503 34.1581 26.1061 31.3056 27.6879C29.4482 28.7167 28.5692 30.21 28.6079 32.2565C28.63 33.3405 28.1048 34.0153 27.1208 34.1591H27.1264Z" fill="#3B3C43"/>
<path d="M29.99 38.9655C29.1718 38.1469 28.0828 37.6712 26.9219 37.6989C25.7665 37.6989 24.683 38.1524 23.8704 38.9655C23.0578 39.7785 22.61 40.8681 22.61 42.0186C22.61 43.1745 23.0688 44.2641 23.9036 45.0882C24.7162 45.8957 25.7831 46.3382 26.9108 46.3382H26.944C29.3156 46.3216 31.2504 44.3747 31.2504 42.002C31.2504 40.8571 30.8026 39.7785 29.99 38.9655ZM25.2469 41.9909C25.2469 41.5318 25.4293 41.1115 25.7499 40.7962C26.065 40.4865 26.4852 40.3206 26.9385 40.3206H26.9661C27.8838 40.3372 28.6246 41.1004 28.6135 42.0296C28.6135 42.4887 28.4311 42.9146 28.1104 43.2243C27.7898 43.5396 27.3642 43.7276 26.8887 43.7C25.96 43.6889 25.2414 42.9367 25.2469 41.9909Z" fill="#3B3C43"/>
</g>
<defs>
<clipPath id="clip0_9_134">
<rect width="53.899" height="53.899" fill="white"/>
</clipPath>
</defs>
</svg>
