<svg width="158" height="80" viewBox="0 0 158 80" fill="none" xmlns="http://www.w3.org/2000/svg">
<g clip-path="url(#clip0_9_6)">
<path d="M158 56.5598C157.754 56.8324 157.466 56.9177 157.093 56.9432C147.122 57.6334 137.141 57.2329 127.161 57.3352C125.644 57.3522 125.644 57.3352 125.644 55.8015V48.2011C124.187 48.6015 122.781 48.9935 121.383 49.394C120.985 49.5047 120.595 49.5644 120.18 49.5559C118.333 49.5559 116.477 49.5559 114.63 49.5559C114.122 49.5559 113.868 49.3514 113.69 48.8912C113.359 48.0307 112.961 47.1871 112.495 46.3606V56.0145C112.495 56.7046 112.343 56.8069 111.665 56.9347C109.005 57.4289 106.319 57.3181 103.642 57.3181C99.7783 57.3266 95.9234 57.3352 92.0601 57.3437C91.5432 57.3437 91.2721 57.0881 91.2721 56.5598C91.2721 53.6202 91.2806 50.6721 91.2721 47.7324C91.2721 47.3831 91.3738 47.1104 91.6195 46.8548C92.543 45.8664 93.6867 45.3722 95.0423 45.3722H95.7709C95.8048 44.9462 95.8556 44.5457 95.8726 44.1453C96.1776 36.4426 96.2877 28.74 95.9997 21.0289C95.9573 19.9297 95.8726 18.822 95.7963 17.7229C95.737 16.8964 95.449 16.5811 94.6187 16.5385C93.8053 16.4959 92.992 16.4959 92.1787 16.5044C91.5178 16.5044 91.2721 16.2744 91.2721 15.6012C91.2721 12.8405 91.2891 10.0799 91.2721 7.31919C91.2721 5.96441 91.7805 4.72893 92.0346 3.42527C92.2126 2.50505 92.4921 1.60186 92.687 0.690157C92.7463 0.391936 92.8734 0.16188 93.0937 -0.0255737H115.3C115.494 0.204483 115.655 0.460101 115.774 0.741281C118.172 6.36488 120.578 11.98 122.984 17.6036C123.077 17.8251 123.128 18.0807 123.348 18.2767C123.433 18.0807 123.518 17.9188 123.585 17.7484C125.051 14.1016 126.525 10.4548 127.983 6.79943C128.127 6.43305 128.33 6.11779 128.593 5.82808C130.389 3.88539 132.168 1.92565 133.956 -0.0255737H157.992V11.162C157.856 11.2813 157.737 11.4176 157.585 11.5199C156.212 12.389 154.84 13.2666 153.459 14.1101C153.086 14.3317 152.934 14.5788 152.934 15.0303C152.95 24.2411 152.934 33.4604 152.951 42.6712C152.951 43.0972 152.951 43.5318 153.018 43.9578C153.171 44.9718 153.637 45.3722 154.662 45.3893C155.45 45.3893 156.246 45.4063 157.043 45.3893C157.432 45.3893 157.763 45.4574 158 45.7812V56.5598ZM157.373 0.698678C157.161 0.570869 156.975 0.613472 156.797 0.613472C149.46 0.613472 142.114 0.613472 134.777 0.596431C134.345 0.596431 134.193 0.766843 134.049 1.13323C131.278 8.03492 128.482 14.9281 125.712 21.8213C125.56 22.1962 125.39 22.3155 124.975 22.3666C124.28 22.4433 124.187 21.9491 124.001 21.5145C121.095 14.7321 118.189 7.95824 115.3 1.16731C115.122 0.758322 114.918 0.596431 114.452 0.596431C107.624 0.613472 100.787 0.596431 93.9579 0.613472C93.763 0.613472 93.5512 0.553828 93.3648 0.707199V10.9319C94.2205 10.9319 95.0508 10.9149 95.8811 10.9319C97.6941 10.9745 98.338 11.6136 98.338 13.4285V43.6766C98.2957 45.2785 97.6518 45.9431 96.0675 45.9942C95.3388 46.0198 94.6017 45.9942 93.8731 45.9942C93.6952 45.9942 93.5003 45.9346 93.3733 46.088V56.2616H111.843V45.9857C111.284 45.9857 110.758 46.0198 110.233 45.9857C108.496 45.8323 107.683 45.6193 107.7 43.404C107.759 37.2095 107.725 31.015 107.725 24.8205C107.725 24.5819 107.675 24.3348 107.776 24.0878C108.217 23.9685 108.225 24.3519 108.318 24.5819C111.58 32.1142 114.834 39.6549 118.078 47.1956C118.223 47.5365 118.417 47.6302 118.765 47.6302C120.739 47.6132 122.713 47.6046 124.678 47.6302C125.204 47.6302 125.449 47.4939 125.653 46.9826C128.677 39.3908 131.736 31.8159 134.76 24.2326C134.972 23.7043 135.218 23.5254 135.777 23.7469V24.3604C135.777 30.1629 135.76 35.974 135.752 41.7851C135.752 42.5434 135.726 43.3017 135.642 44.043C135.531 45.0314 135.15 45.7897 133.93 45.9175C133.337 45.9772 132.753 45.9516 132.168 45.9857C131.948 45.9857 131.719 45.9175 131.516 46.088V56.2701H157.322V45.9857C156.365 45.9857 155.45 45.9857 154.535 45.9857C153.239 45.9687 152.764 45.5512 152.459 44.2986C152.332 43.7704 152.357 43.2421 152.357 42.7138V14.076C152.357 13.6841 152.357 13.3007 152.357 12.9087C152.408 11.8096 152.934 11.2387 154.001 11.0342C154.586 10.9234 155.17 10.9319 155.763 10.9234C156.28 10.9064 156.805 10.9916 157.339 10.8638V0.698678H157.365H157.373ZM108.445 36.7323L108.318 36.7579C108.318 39.1437 108.31 41.538 108.318 43.9237C108.318 44.7587 108.683 45.1251 109.505 45.2955C110.36 45.466 111.233 45.3467 112.173 45.3978C110.902 42.4667 109.666 39.5953 108.437 36.7323M126.381 46.7781C127.567 46.4543 128.635 46.1646 129.711 45.8664C129.914 45.8068 130.067 45.7301 130.067 45.4574C130.067 42.8757 130.067 40.2939 130.067 37.6185C128.838 40.6859 127.627 43.6766 126.39 46.7696" fill="#3B3C43"/>
<path d="M43.8103 0C44.1068 0.178933 44.2085 0.502716 44.3695 0.783896C45.4115 2.53914 46.4367 4.29439 47.4873 6.04963C47.6482 6.32229 47.733 6.59495 47.733 6.91021V21.6935C47.733 22.2984 47.5042 22.5455 46.962 22.5455C44.5643 22.5455 42.1667 22.52 39.769 22.5285C39.2437 22.5285 38.854 22.3666 38.4812 21.9917C37.1849 20.6966 35.8633 19.427 34.5331 18.1574C34.2789 17.9188 34.1773 17.6377 34.1688 17.3054H29.221V22.1536C29.3226 22.2814 29.4751 22.2303 29.6107 22.2303C31.051 22.2303 32.4998 22.2303 33.9401 22.2132C34.2451 22.2132 34.4823 22.2984 34.711 22.4944C36.0581 23.6447 37.4137 24.795 38.7862 25.9112C39.1759 26.2264 39.3115 26.5758 39.3115 27.07C39.2945 30.197 39.3115 33.3241 39.3115 36.4512C39.3115 37.0902 39.1251 37.2947 38.4812 37.2947H29.2549C29.2294 37.3884 29.1956 37.4651 29.1956 37.5418C29.1956 39.9957 29.1956 42.4497 29.1956 44.9036C29.1956 45.3467 29.3481 45.5341 29.7801 45.6534C31.0764 45.9943 32.3557 46.4032 33.6435 46.7441C34.1857 46.8889 34.406 47.1786 34.406 47.741C34.406 50.6806 34.406 53.6287 34.406 56.5768C34.406 57.1136 34.101 57.3522 33.5927 57.3522C24.9509 57.3267 16.3092 57.3267 7.66744 57.267C5.3545 57.25 3.04156 57.037 0.728618 56.9177C0.262641 56.8921 0.0169445 56.6706 0.0169445 56.1934V46.1306C0.0169445 45.5938 0.288058 45.3637 0.813341 45.3637C1.91474 45.3637 3.00767 45.3808 4.10907 45.3637C5.29519 45.3382 5.6595 44.9803 5.74422 43.7789C5.77811 43.3529 5.76964 42.9183 5.76964 42.4923C5.76964 33.5116 5.76964 24.5394 5.78658 15.5586C5.78658 15.0389 5.61714 14.7577 5.19352 14.4936C3.59226 13.5222 2.02488 12.5083 0.44056 11.5113C0.152501 11.3324 0.0169445 11.1194 0.0169445 10.7701C-1.38767e-07 7.45553 0.00847217 4.12397 -0.00847244 0.792417C-1.38767e-07 0.443072 0.186391 0.230056 0.372781 0H43.8103ZM0.635423 56.2786H28.7211V46.0539C28.6279 46.0283 28.594 46.0028 28.5517 46.0028C27.518 46.0028 26.476 46.0028 25.4423 45.9857C23.9258 45.9516 23.3158 45.5341 23.0955 44.3753C23.0108 43.8982 22.9599 43.404 22.9599 42.9183C22.943 40.1747 22.9599 37.4396 22.9599 34.6959C22.9599 34.517 22.9091 34.3295 23.087 34.0739H34.1264V22.7926H22.9938C22.9769 22.6307 22.9599 22.537 22.9599 22.4348C22.9599 19.0606 22.9599 15.6864 22.9515 12.3123C22.9515 11.8522 23.1548 11.7755 23.5445 11.7755C26.0862 11.784 28.6279 11.7755 31.1696 11.7755C33.2538 11.7755 33.9231 12.3038 34.3976 14.3317C34.4145 14.4083 34.4145 14.4936 34.4314 14.5788C34.5755 15.5842 34.711 16.5811 34.8551 17.5865H43.5392V0.647566H0.66084V10.9234H3.99046C5.59172 10.9405 6.23562 11.5539 6.34576 13.1558C6.35423 13.3177 6.34576 13.4796 6.34576 13.65V43.2847C6.34576 43.3869 6.35423 43.4892 6.34576 43.5914C6.13395 45.5341 5.71881 45.8835 3.95657 45.9857C3.04156 46.0369 2.12655 45.9857 1.21154 46.0028C1.01668 46.0028 0.804869 45.9346 0.62695 46.1221V56.2786H0.635423Z" fill="#3B3C43"/>
<path d="M158 64.6629C157.695 64.927 157.356 65.0123 156.949 65.0123H1.05057C0.186391 65.0123 0.00847244 64.8418 0.00847244 63.9898V60.8627C0.00847244 60.1725 0.22028 59.9595 0.915009 59.9169H0.974315C26.5522 59.0563 52.1386 58.4003 77.7419 58.707C98.9819 58.9626 120.23 59.2694 141.479 59.312C144.317 59.312 147.164 59.6187 150.002 59.8147C152.256 59.968 154.509 59.8999 156.772 59.9169C157.229 59.9169 157.644 59.9851 158.008 60.2663V64.6629H158ZM0.643895 64.3647H157.339V60.9224H0.643895V64.3647Z" fill="#393536"/>
<path d="M80.7749 6.20447e-06C81.1647 0.264145 81.1647 0.664614 81.1647 1.08212V46.105C81.1647 48.2181 81.2663 48.3289 83.3505 48.3204C83.8758 48.3204 84.4096 48.3374 84.9348 48.3204C85.4686 48.3033 85.7397 48.5675 85.7397 49.0872V56.1423C85.7397 56.6706 85.4432 56.9092 84.9264 56.9092H68.6426C68.1258 56.9092 67.8547 56.6791 67.77 56.1764C67.7191 55.8611 67.7276 55.5203 67.5497 55.1795C66.2704 56.1423 64.864 56.7984 63.3051 57.0966C60.4584 57.6419 57.6032 57.9998 54.748 57.1307C50.4187 55.81 47.6567 52.8363 46.0131 48.7123C44.5135 44.9462 44.1661 40.9927 44.2593 36.9795C44.3356 33.5627 45.0642 30.2993 46.6231 27.2489C49.8256 20.9777 56.0951 17.4673 63.0594 18.0467C64.5928 18.1745 66.0331 18.609 67.4311 19.3759V13.846C66.6686 13.846 65.9061 13.829 65.1435 13.846C64.5928 13.863 64.2878 13.6671 64.1269 13.1132C63.6524 11.4687 63.1356 9.83279 62.6442 8.19683C62.6019 8.0605 62.5934 7.91565 62.5934 7.77932C62.5934 5.48728 62.6019 3.19523 62.5934 0.911711C62.5934 0.528284 62.7289 0.255624 62.9577 -0.0085144H80.7749V6.20447e-06ZM63.2288 7.98382C64.2794 7.98382 65.2706 7.96678 66.2704 7.98382C67.2447 8.00086 67.77 8.3502 67.9394 9.0915C68.0157 9.4238 68.058 9.77314 68.0665 10.1225C68.075 13.2922 68.0665 16.4618 68.0665 19.6315C68.0665 20.2876 67.9225 20.3728 67.3463 20.049C66.6008 19.6315 65.8467 19.2225 65.0165 19.0265C61.2548 18.1574 57.6201 18.609 54.2058 20.3728C49.8256 22.6307 47.1568 26.3457 45.7674 31.0235C44.9286 33.8439 44.7168 36.7324 44.8693 39.672C45.0218 42.5178 45.3946 45.3126 46.3774 47.9881C47.5042 51.0811 49.2919 53.6628 52.1894 55.3584C54.6972 56.8325 57.3999 57.2841 60.272 56.9688C63.0763 56.6621 65.4994 55.597 67.4819 53.552C67.5666 53.4668 67.6514 53.3731 67.8716 53.4413C68.1173 54.1485 68.1851 54.9409 68.2952 55.7077C68.363 56.2105 68.5325 56.3383 69.0154 56.3383C74.2004 56.3212 79.3855 56.3298 84.5705 56.3298C84.7654 56.3298 84.9772 56.3979 85.1297 56.2446V48.9509H82.7236C82.3762 48.9509 82.0373 48.9253 81.6984 48.8657C81.224 48.789 80.9274 48.5334 80.7834 48.0818C80.597 47.5109 80.5631 46.923 80.5631 46.3266V1.42295C80.5631 1.16733 80.6394 0.89467 80.4869 0.664614H63.2458V7.98382H63.2288Z" fill="#3B3C43"/>
<path d="M78.9449 80V76.3532C79.9108 76.4384 80.1395 75.6375 80.3852 74.9217C80.8088 73.6948 80.7919 72.3911 80.8851 71.113C80.9444 70.3802 80.9868 69.656 81.0376 68.8891H86.8496V76.2424C87.18 76.4043 87.5189 76.2595 87.8663 76.3617C87.8663 77.5802 87.8324 78.7901 87.7307 80.0085H86.0193V77.8443H80.6479V80.0085H78.9449V80ZM82.7914 70.3802C82.6219 72.3911 82.7066 74.419 81.7069 76.268H85.0111V70.3802H82.7914Z" fill="#3B3C43"/>
<path d="M110.148 71.5305C110.123 73.6095 110.259 75.663 110.174 77.7591H108.386V68.8721H110.758C111.496 70.9596 112.241 73.0727 113.037 75.3136C113.825 73.0812 114.571 70.9681 115.308 68.8721H117.689V77.7505H115.901C115.816 75.6715 115.943 73.601 115.935 71.5049C115.181 73.5925 114.418 75.6886 113.664 77.7846H112.394C111.64 75.6971 110.894 73.618 110.14 71.539" fill="#3B3C43"/>
<path d="M5.09185 69.6134V68.5142H6.79479C6.94729 68.855 6.76937 69.2555 6.89645 69.6134C9.46356 70.0309 10.6158 71.1726 10.6412 73.2943C10.6666 75.4926 9.56523 76.6088 6.86257 77.086V78.134H5.10033V77.103C2.3553 76.5492 1.22848 75.4159 1.28779 73.3113C1.3471 71.1726 2.55016 69.9798 5.10033 69.6134M5.06644 71.2323C3.71087 71.1982 3.00767 72.0162 3.05003 73.4988C3.08392 74.7854 3.83795 75.5096 5.06644 75.4159V71.2323ZM6.90493 71.2153V75.45C8.15883 75.4585 8.87897 74.7343 8.91286 73.4647C8.95522 72.0588 8.26049 71.2579 6.90493 71.2153Z" fill="#3B3C43"/>
<path d="M155.23 72.1099C154.204 73.8226 153.162 75.5267 152.163 77.2479C151.917 77.6654 151.654 77.8699 151.163 77.8102C150.79 77.7676 150.4 77.8017 149.994 77.8017V68.8977C150.578 68.7954 151.154 68.8636 151.773 68.8465V74.5809C152.052 74.5639 152.069 74.3423 152.154 74.206C153.111 72.6212 154.086 71.0363 155.009 69.4344C155.263 68.9914 155.535 68.7698 156.051 68.838C156.407 68.8891 156.772 68.8465 157.17 68.8465V77.7676H155.357V72.127C155.314 72.127 155.272 72.1184 155.221 72.1099" fill="#3B3C43"/>
<path d="M43.7595 77.7761H41.9718V72.0843C41.7007 72.144 41.6753 72.3485 41.5821 72.4933C40.6247 74.0782 39.6589 75.663 38.7269 77.2649C38.4897 77.6653 38.2525 77.8613 37.778 77.8102C37.4052 77.7676 37.0155 77.8017 36.6004 77.8017V68.8806H38.3711V74.5468C38.6676 74.5127 38.6845 74.2997 38.7693 74.1634C39.7266 72.5785 40.684 70.9937 41.616 69.3918C41.8447 68.9999 42.0819 68.7784 42.5649 68.838C42.9376 68.8891 43.3274 68.8465 43.7595 68.8465V77.7846V77.7761Z" fill="#3B3C43"/>
<path d="M126.356 68.8636H132.109V70.3547H128.254C128.135 70.917 128.211 71.4453 128.194 71.9565C128.355 72.1355 128.55 72.0588 128.728 72.0673C129.313 72.1014 129.906 72.0843 130.49 72.161C131.956 72.3485 132.947 73.371 133.007 74.7002C133.074 76.2509 132.227 77.333 130.702 77.6909C130.058 77.8443 129.414 77.7932 128.762 77.8017C127.974 77.8102 127.186 77.8017 126.356 77.8017V68.8636ZM128.203 76.3361C128.923 76.2594 129.592 76.4299 130.245 76.2083C130.838 76.0123 131.16 75.5608 131.16 74.9217C131.16 74.2827 130.863 73.8311 130.296 73.6777C129.609 73.4902 128.906 73.584 128.203 73.5925V76.3361Z" fill="#3B3C43"/>
<path d="M103.684 77.7761H101.922V74.6661C101.464 74.5298 101.041 74.6235 100.626 74.5894C100.346 74.5724 100.312 74.8024 100.219 74.9728C99.8122 75.7738 99.4055 76.5662 99.0243 77.3756C98.8718 77.6994 98.6854 77.8187 98.3296 77.7932C97.8636 77.7591 97.3976 77.7932 96.83 77.7932C97.4654 76.5065 98.0754 75.2796 98.7023 74.01C97.8805 73.4902 97.3637 72.7575 97.3468 71.7265C97.3298 70.2183 98.1347 69.2044 99.6258 68.9488C100.956 68.7187 102.295 68.8976 103.684 68.8295V77.7676V77.7761ZM101.854 70.3376C100.998 70.474 100.041 70.0394 99.4225 70.917C99.0412 71.4453 99.0412 72.1184 99.414 72.6467C100.032 73.5243 100.998 73.0727 101.854 73.192V70.3376Z" fill="#3B3C43"/>
<path d="M148.426 68.8721V77.7591H146.605V70.3973H144.249C144.199 71.3345 144.139 72.2888 144.105 73.2431C144.08 73.9844 144.004 74.7087 143.851 75.4329C143.47 77.2308 142.58 77.8954 140.7 77.7761V76.3446C141.708 76.268 142.021 75.5522 142.157 74.6576C142.411 72.9534 142.326 71.2323 142.453 69.5196C142.47 69.3151 142.479 69.1106 142.487 68.8806H148.426V68.8721Z" fill="#3B3C43"/>
<path d="M96.1691 68.8636V77.7676H94.3476V70.3802H92.0262C91.9414 71.735 91.8652 73.0727 91.7635 74.419C91.7296 74.845 91.6449 75.2711 91.5348 75.68C91.1027 77.3245 90.1877 77.938 88.4593 77.7506V76.3361C89.5184 76.268 89.8064 75.5096 89.925 74.6235C90.1284 73.1239 90.1368 71.6072 90.1792 70.099C90.1877 69.6986 90.2216 69.2896 90.2385 68.8721H96.1691V68.8636Z" fill="#3B3C43"/>
<path d="M29.6361 68.8891V72.4422H33.1775V68.8806H34.9906V77.7676H33.1945V74.0015H29.6446V77.7676H27.823V68.8891H29.6361Z" fill="#3B3C43"/>
<path d="M60.9921 68.8295C62.4663 68.9062 63.8557 68.7187 65.2283 68.9317C67.0159 69.2214 67.9733 70.5592 67.7276 72.357C67.5666 73.5669 66.5245 74.4872 65.1097 74.5894C64.3641 74.6491 63.6185 74.5979 62.8052 74.5979V77.7591H60.9921V68.821V68.8295ZM62.8391 70.3802V73.1409C63.4576 73.1409 64.0421 73.1579 64.6267 73.1409C65.3977 73.1068 65.8383 72.6978 65.8891 72.0077C65.9569 71.1641 65.5587 70.5677 64.8046 70.4228C64.1692 70.3035 63.5169 70.3632 62.8306 70.3802" fill="#3B3C43"/>
<path d="M75.5645 77.7846H73.6158C73.4464 77.2904 73.2515 76.8048 73.1075 76.302C73.0313 76.0294 72.8957 75.9527 72.6331 75.9612C71.7011 75.9697 70.7692 75.9612 69.8033 75.9612C69.6339 76.4725 69.456 76.9752 69.3035 77.4779C69.2357 77.6994 69.134 77.8187 68.8798 77.8102C68.3546 77.7931 67.8293 77.8102 67.2362 77.8102C67.6852 76.5917 68.1173 75.4329 68.5494 74.2741C69.1679 72.6126 69.7864 70.9511 70.3879 69.2896C70.498 68.9828 70.6336 68.8465 70.981 68.8465C72.2349 68.8465 72.2349 68.8295 72.6669 69.9968C73.6243 72.57 74.5817 75.1432 75.573 77.7932M71.3961 71.1471C70.9979 72.3485 70.659 73.388 70.3032 74.4531H72.489C72.1332 73.388 71.7943 72.357 71.3876 71.1471" fill="#3B3C43"/>
<path d="M21.579 74.6064V77.7676H19.7574V68.8465C21.2994 68.9147 22.8498 68.6505 24.3579 69.0169C25.8405 69.3663 26.6285 70.5677 26.5098 72.1355C26.4082 73.4903 25.4169 74.4701 23.9343 74.6064C23.1718 74.6746 22.4008 74.615 21.5705 74.615M21.5874 73.1494H21.9856C22.4685 73.1494 22.9599 73.1665 23.4429 73.1324C24.1715 73.0898 24.5951 72.6723 24.6459 72.0077C24.7137 71.1812 24.3409 70.5762 23.6293 70.4228C22.9515 70.278 22.2737 70.3547 21.579 70.3632V73.1409H21.5874V73.1494Z" fill="#3B3C43"/>
<path d="M119.349 68.8636H125.204C125.356 69.3322 125.229 69.7923 125.288 70.3291H121.179V72.4763H124.645V73.8822H121.179V76.2935H125.212C125.348 76.7877 125.238 77.2478 125.288 77.7506H119.341V68.855H119.349V68.8636Z" fill="#3B3C43"/>
<path d="M134.227 68.8465H139.7C139.818 68.8465 139.937 68.8636 140.081 68.8721C140.183 69.3492 140.14 69.8094 140.115 70.3376H136.074V72.4763H139.522V73.8822H136.091V76.3021H140.132V77.7761H134.235V68.8465H134.227Z" fill="#3B3C43"/>
<path d="M53.8839 77.8698V76.4639C54.4684 76.4299 55.0869 76.4895 55.3665 75.7823C55.5105 75.4159 55.5444 75.1177 55.3496 74.7428C54.3837 72.8171 53.4433 70.8744 52.452 68.838H54.2482C54.5277 68.838 54.5447 69.0851 54.6209 69.2555C55.1971 70.4654 55.7562 71.6839 56.3832 73.0387C56.595 72.5104 56.7644 72.0929 56.9254 71.6754C57.2304 70.8744 57.5524 70.082 57.8319 69.2725C57.9506 68.9232 58.137 68.8039 58.4928 68.8295C58.9588 68.8636 59.4247 68.8295 59.8653 68.8295C59.9754 69.0425 59.8484 69.1788 59.789 69.3237C58.8571 71.5561 57.9167 73.797 56.9678 76.0209C56.2985 77.5801 55.5529 78.0232 53.8839 77.8528" fill="#3B3C43"/>
<path d="M12.6576 77.8784V76.4725C13.2253 76.4299 13.8522 76.4895 14.1318 75.7908C14.2758 75.4244 14.3097 75.1262 14.1233 74.7513C13.2422 73.0046 12.3865 71.2493 11.5308 69.4941C11.4461 69.3152 11.3614 69.1277 11.2427 68.8465C11.8612 68.8465 12.4119 68.8551 12.9626 68.8465C13.2761 68.838 13.31 69.0936 13.3947 69.2811C13.9031 70.3462 14.3944 71.4198 14.8943 72.4934C14.9706 72.6552 15.0553 72.8086 15.1739 73.0301C15.6738 71.735 16.1397 70.5336 16.5888 69.3152C16.7074 68.9914 16.8514 68.8125 17.2327 68.8465C17.6986 68.8891 18.1646 68.855 18.6137 68.855C18.7407 69.051 18.6137 69.1874 18.5543 69.3322C17.6139 71.5816 16.6735 73.8396 15.7077 76.0891C15.0638 77.5972 14.3097 78.0403 12.6492 77.8869" fill="#3B3C43"/>
<path d="M52.0115 70.3462H49.3088V77.7591H47.4788V70.3632H44.81V68.8806H51.9606C52.0793 69.3407 51.9861 69.8179 52.0115 70.3462Z" fill="#3B3C43"/>
<path d="M157.373 0.698683V10.8552C156.839 10.9916 156.314 10.9064 155.797 10.9149C155.213 10.9319 154.62 10.9149 154.035 11.0257C152.967 11.2216 152.442 11.7925 152.391 12.9002C152.374 13.2921 152.391 13.6756 152.391 14.0675V42.7138C152.391 43.2421 152.357 43.7704 152.493 44.2986C152.806 45.5597 153.272 45.9687 154.569 45.9857C155.484 46.0028 156.39 45.9857 157.356 45.9857V56.2616H131.549V46.0794C131.753 45.909 131.982 45.9942 132.202 45.9772C132.786 45.9431 133.371 45.9772 133.964 45.909C135.184 45.7812 135.565 45.0229 135.675 44.0345C135.76 43.2847 135.777 42.5264 135.786 41.7765C135.803 35.9655 135.803 30.1629 135.811 24.3519V23.7384C135.26 23.5169 135.006 23.6873 134.794 24.2241C131.77 31.8074 128.711 39.3908 125.687 46.9741C125.483 47.4853 125.238 47.6302 124.712 47.6217C122.738 47.5876 120.764 47.6046 118.799 47.6217C118.451 47.6217 118.265 47.528 118.112 47.1871C114.867 39.6464 111.614 32.1056 108.352 24.5734C108.251 24.3434 108.242 23.9599 107.81 24.0792C107.708 24.3178 107.759 24.5649 107.759 24.812C107.759 31.0065 107.793 37.201 107.734 43.3955C107.717 45.6108 108.522 45.8238 110.267 45.9772C110.784 46.0198 111.318 45.9772 111.877 45.9772V56.2531H93.4071V46.0794C93.5427 45.9261 93.7376 45.9857 93.907 45.9857C94.6356 45.9857 95.3727 46.0028 96.1013 45.9857C97.6857 45.9346 98.3296 45.27 98.3719 43.6681V13.4114C98.3719 11.5965 97.728 10.9575 95.9149 10.9149C95.0847 10.8979 94.2628 10.9149 93.3987 10.9149V0.707203C93.5851 0.553832 93.7969 0.613477 93.9917 0.613477C100.82 0.613477 107.658 0.613477 114.486 0.596436C114.952 0.596436 115.156 0.758327 115.333 1.16732C118.223 7.94972 121.129 14.7321 124.035 21.5145C124.221 21.9491 124.314 22.4348 125.009 22.3666C125.416 22.324 125.593 22.2047 125.737 21.8298C128.508 14.9281 131.295 8.03493 134.074 1.14175C134.227 0.775368 134.371 0.604956 134.803 0.604956C142.14 0.621997 149.485 0.604956 156.822 0.621997C157 0.621997 157.187 0.579394 157.398 0.707203" fill="#E11F27"/>
<path d="M0.635424 56.2786V46.122C0.813342 45.9346 1.02515 46.0028 1.22001 46.0028C2.13502 46.0028 3.05003 46.0368 3.96504 45.9857C5.72728 45.8835 6.14242 45.5341 6.35423 43.5914C6.3627 43.4892 6.35423 43.3869 6.35423 43.2847V13.1643C6.24409 11.5539 5.60019 10.9404 3.99893 10.9319C2.906 10.9234 1.81307 10.9319 0.669313 10.9319V0.647552H43.5222V17.595H34.8381C34.6941 16.5896 34.5585 15.5927 34.4145 14.5873C34.4145 14.5021 34.3976 14.4254 34.3806 14.3402C33.9062 12.3123 33.2369 11.784 31.1527 11.784C28.611 11.784 26.0693 11.7925 23.5276 11.784C23.1379 11.784 22.9345 11.8607 22.9345 12.3208C22.9515 15.6949 22.943 19.0691 22.943 22.4433C22.943 22.5455 22.9599 22.6392 22.9769 22.8011H34.1095V34.0824H23.0701C22.8922 34.3295 22.943 34.5255 22.943 34.7044V42.9268C22.943 43.4125 22.9854 43.9067 23.0786 44.3838C23.2988 45.5426 23.9088 45.9602 25.4254 45.9942C26.459 46.0113 27.5011 45.9942 28.5347 46.0113C28.5771 46.0113 28.611 46.0368 28.7042 46.0624V56.2871H0.635424V56.2786Z" fill="#E11F27"/>
<path d="M157.339 60.9309H0.643894V64.3732H157.339V60.9309Z" fill="#E11F27"/>
<path d="M63.2288 7.98382V0.664612H80.4699C80.6309 0.894668 80.5462 1.16733 80.5462 1.42295V46.318C80.5462 46.9145 80.5801 47.5024 80.7665 48.0648C80.9105 48.5164 81.2155 48.7635 81.6815 48.8487C82.0204 48.9083 82.3677 48.9424 82.7151 48.9339H85.1212V56.2275C84.9687 56.3894 84.7485 56.3127 84.5536 56.3127C79.3685 56.3127 74.1835 56.3127 68.9984 56.3298C68.5155 56.3298 68.3545 56.2105 68.2783 55.6992C68.1682 54.9324 68.1004 54.14 67.8547 53.4327C67.6344 53.3646 67.5497 53.4583 67.465 53.552C65.4824 55.597 63.0594 56.6621 60.255 56.9688C57.3829 57.2841 54.6803 56.8325 52.1725 55.3584C49.2834 53.6628 47.4957 51.0896 46.3605 47.9966C45.3777 45.3126 45.0049 42.5264 44.8524 39.6805C44.6999 36.7409 44.9117 33.8524 45.7504 31.0321C47.1399 26.3542 49.8002 22.6393 54.1889 20.3813C57.6032 18.6175 61.2378 18.1659 64.9995 19.035C65.8383 19.231 66.5923 19.64 67.3294 20.0575C67.9055 20.3813 68.0495 20.2961 68.0495 19.64V10.131C68.0495 9.79018 67.9987 9.43232 67.9225 9.10002C67.7445 8.35872 67.2277 8.00938 66.2534 7.99234C65.2622 7.97529 64.2709 7.99234 63.2119 7.99234M68.058 38.1042V29.9499C68.058 28.6889 67.4988 27.7687 66.4483 27.1296C65.7959 26.7292 65.0758 26.5417 64.3217 26.465C61.9918 26.2264 60.3821 27.1041 59.7721 29.345C59.4078 30.6742 59.3485 32.046 59.3231 33.4093C59.2807 35.9399 59.2807 38.4791 59.3315 41.0097C59.3654 42.39 59.3739 43.7789 59.645 45.1507C60.0517 47.2042 61.1955 48.5504 62.8814 48.8316C64.7369 49.1469 66.3043 48.5504 67.6598 47.2809C67.9479 47.0082 68.058 46.7185 68.058 46.318C68.0411 43.5744 68.0495 40.8393 68.0495 38.1042" fill="#E11F27"/>
<path d="M68.0665 38.0956C68.0665 40.8393 68.058 43.5744 68.075 46.3095C68.075 46.71 67.9648 46.9997 67.6768 47.2723C66.3212 48.5419 64.7538 49.1383 62.8984 48.8231C61.2124 48.5419 60.0686 47.1956 59.662 45.1422C59.3908 43.7704 59.3824 42.3815 59.3485 41.0012C59.2892 38.4705 59.2976 35.9314 59.34 33.4008C59.3654 32.0375 59.4247 30.6742 59.789 29.3364C60.399 27.0955 62.0088 26.2094 64.3387 26.4565C65.0927 26.5332 65.8128 26.7121 66.4652 27.1211C67.5158 27.7687 68.075 28.6889 68.075 29.9414V38.0956M67.4649 38.4961V31.4496C67.4649 30.5378 67.0074 30.0096 66.1009 29.8562C63.6694 29.4472 62.1274 30.4782 61.5682 32.8895C61.4666 33.3241 61.3988 33.7757 61.3649 34.2188C61.1531 37.5418 61.2802 40.8733 61.2971 44.2049C61.2971 45.1422 61.4242 46.0709 61.6106 46.9997C61.7461 47.6387 62.085 47.9795 62.695 48.1499C64.3641 48.6101 65.762 48.1073 67.0498 47.0508C67.3379 46.8122 67.465 46.5481 67.4565 46.1561C67.4395 43.5999 67.4565 41.0523 67.4565 38.4961" fill="#3B3C43"/>
</g>
<defs>
<clipPath id="clip0_9_6">
<rect width="158" height="80" fill="white"/>
</clipPath>
</defs>
</svg>
