<svg width="44" height="44" viewBox="0 0 44 44" fill="none" xmlns="http://www.w3.org/2000/svg">
<g clip-path="url(#clip0_9_52)">
<path d="M43.7739 10.9514C43.7597 10.8802 43.7407 10.8042 43.7359 10.7282C43.4889 8.2677 42.6954 6.05897 41.3697 4.16374C40.0725 2.31126 38.5425 1.15227 36.6847 0.615527C34.2187 -0.0969657 32.0282 0.762775 30.9639 2.85275C29.9851 4.77173 29.0965 6.55771 28.246 8.3057C27.1722 10.5144 27.5903 12.6376 29.4196 14.2859C30.0041 14.8131 30.6455 15.3309 31.3725 15.8724C32.052 16.3759 32.3371 17.0076 32.2705 17.8673C32.1755 19.1403 31.5911 20.2613 31.0922 21.0973C28.9492 24.6978 25.9748 27.7805 22.2543 30.2647C21.3278 30.8822 20.0781 31.6422 18.6669 31.9889C17.3698 32.3072 16.4955 32.0079 15.8303 31.0105C15.4169 30.3882 14.9228 29.8372 14.4286 29.2862C12.8036 27.467 10.6084 27.049 8.39892 28.1415C6.61711 29.0202 4.84004 29.9085 3.06297 30.7967C1.24314 31.7087 0.288089 33.5422 0.558926 35.5847C0.734732 36.8909 1.24314 38.0784 2.07466 39.1234C3.70443 41.1658 5.89963 42.5101 8.78855 43.2321C9.33972 43.3698 9.9004 43.4601 10.4421 43.5456C10.6797 43.5836 10.922 43.6216 11.1596 43.6643L14.0342 43.6738L14.6994 43.5836C15.1603 43.5218 15.6165 43.4601 16.0726 43.3793C19.0281 42.8806 21.936 41.8783 24.9675 40.3204C29.2581 38.1116 32.6031 35.5847 35.1975 32.5969C39.4643 27.676 42.2345 22.2278 43.4223 16.4091C43.5221 15.9104 43.5839 15.4069 43.6409 14.9224C43.6694 14.6896 43.6979 14.4569 43.7312 14.2241C43.7407 14.1624 43.7549 14.1054 43.7692 14.0436L43.7977 13.9154L43.812 11.2317L43.7692 10.9514H43.7739ZM35.397 17.7771C35.4398 15.9484 34.7081 14.4664 33.2208 13.3644C32.6982 12.9796 32.1517 12.5379 31.5483 12.0107C30.712 11.2887 30.5837 10.6854 31.0446 9.71643C31.9522 7.8117 32.8977 5.94497 33.7815 4.21599C34.0856 3.6175 34.651 3.39425 35.4493 3.54625C36.5041 3.75049 37.3974 4.28249 38.1767 5.18498C39.7114 6.94721 40.5287 9.09894 40.6665 11.7542C40.676 11.9252 40.6712 12.0962 40.6665 12.2672V12.5284C40.6474 15.1124 40.082 17.7533 38.9322 20.5986C36.9745 25.4483 34.3992 29.291 31.0494 32.3452C26.7635 36.2544 21.8695 38.8621 16.505 40.0924C13.6066 40.7574 11.0883 40.7289 8.81231 39.9926C6.67888 39.3039 5.23917 38.3016 4.27461 36.8291C3.72343 35.9837 3.53337 35.2474 3.69017 34.5064C3.77095 34.1169 3.97051 33.8509 4.31737 33.6799L5.09187 33.2904C6.64086 32.5114 8.24212 31.7039 9.82438 30.9345C10.1902 30.7587 10.5038 30.6685 10.7937 30.6685C11.2783 30.6685 11.6965 30.9202 12.1526 31.4427L12.3047 31.6185C12.6658 32.0269 13.0031 32.4164 13.2882 32.8344C14.6947 34.9054 16.8899 35.6797 19.4699 35.0147C20.9999 34.6204 22.4777 33.9032 24.2595 32.6919C28.3125 29.9417 31.5388 26.5265 33.8623 22.546C34.499 21.4583 35.3495 19.7768 35.397 17.7866V17.7771Z" fill="#3B3C43"/>
</g>
<defs>
<clipPath id="clip0_9_52">
<rect width="43.3005" height="43.3005" fill="white" transform="translate(0.51355 0.369232)"/>
</clipPath>
</defs>
</svg>
