<svg width="55" height="55" viewBox="0 0 55 55" fill="none" xmlns="http://www.w3.org/2000/svg">
<path d="M54.7774 13.3994C54.7594 13.3092 54.7353 13.213 54.7293 13.1168C54.4165 10.0012 53.4117 7.20449 51.7331 4.8047C50.0906 2.45904 48.1533 0.991504 45.8008 0.311865C42.6783 -0.590312 39.9047 0.498314 38.557 3.1447C37.3176 5.57456 36.1925 7.83602 35.1156 10.0494C33.7558 12.8461 34.2853 15.5346 36.6016 17.6216C37.3417 18.2892 38.1539 18.9448 39.0744 19.6305C39.9348 20.268 40.2957 21.0679 40.2115 22.1566C40.0912 23.7685 39.3512 25.1879 38.7194 26.2464C36.006 30.8054 32.2397 34.7088 27.5288 37.8544C26.3555 38.6363 24.7732 39.5986 22.9863 40.0377C21.3438 40.4407 20.2368 40.0618 19.3945 38.7987C18.871 38.0108 18.2453 37.3131 17.6196 36.6154C15.562 34.3119 12.7823 33.7826 9.98467 35.166C7.72848 36.2786 5.47831 37.4033 3.22815 38.5281C0.923831 39.6828 -0.285484 42.0045 0.0574563 44.5907C0.280066 46.2447 0.923831 47.7483 1.97672 49.0715C4.04037 51.6577 6.81999 53.3598 10.478 54.2741C11.1759 54.4485 11.8859 54.5627 12.5718 54.671C12.8726 54.7191 13.1794 54.7672 13.4802 54.8214L17.1202 54.8334L17.9625 54.7191C18.5461 54.6409 19.1237 54.5628 19.7013 54.4605C23.4436 53.829 27.1256 52.5599 30.9642 50.5872C36.3971 47.7904 40.6327 44.5907 43.9177 40.8076C49.3205 34.5765 52.8281 27.6779 54.3322 20.3101C54.4586 19.6786 54.5368 19.041 54.609 18.4276C54.6451 18.1329 54.6812 17.8381 54.7233 17.5434C54.7353 17.4652 54.7534 17.3931 54.7714 17.3149L54.8075 17.1525L54.8256 13.7543L54.7714 13.3994H54.7774ZM44.1704 22.0423C44.2245 19.7267 43.298 17.8502 41.4148 16.4548C40.753 15.9676 40.0611 15.4083 39.297 14.7407C38.2381 13.8265 38.0757 13.0626 38.6593 11.8357C39.8084 9.42385 41.0057 7.06015 42.1248 4.87086C42.5098 4.11304 43.2258 3.83035 44.2365 4.02282C45.5722 4.28144 46.7033 4.95507 47.69 6.09782C49.6333 8.32921 50.6682 11.0538 50.8427 14.4159C50.8547 14.6324 50.8487 14.8489 50.8427 15.0655V15.3963C50.8186 18.6681 50.1026 22.0122 48.6466 25.6149C46.1678 31.7557 42.9069 36.6215 38.6653 40.4888C33.2384 45.4387 27.0414 48.7407 20.2488 50.2985C16.5787 51.1405 13.39 51.1044 10.5081 50.1722C7.8067 49.3 5.9837 48.031 4.76235 46.1665C4.06444 45.0959 3.82378 44.1637 4.02232 43.2254C4.1246 42.7322 4.3773 42.3954 4.8165 42.1789L5.79719 41.6857C7.75856 40.6993 9.78612 39.6768 11.7896 38.7025C12.2529 38.4799 12.65 38.3657 13.017 38.3657C13.6307 38.3657 14.1601 38.6844 14.7377 39.346L14.9302 39.5686C15.3875 40.0858 15.8146 40.579 16.1756 41.1083C17.9565 43.7306 20.7361 44.711 24.0031 43.8689C25.9404 43.3697 27.8115 42.4616 30.0677 40.9279C35.1998 37.4455 39.285 33.121 42.227 28.0809C43.0333 26.7035 44.1102 24.5744 44.1704 22.0543V22.0423Z" fill="#3B3C43"/>
</svg>
